<svg width="304" height="219" viewBox="0 0 304 219" fill="none" xmlns="http://www.w3.org/2000/svg">
<!-- <rect width="303.657" height="218.435" fill="#F5A58C"/> -->
<path d="M254.268 40.3824C227.144 50.9007 196.389 66.4817 183.135 76.4246C172.893 84.1045 164.708 92.3423 162.34 97.3524C160.214 101.843 160.414 109.158 162.765 112.979C166.999 119.87 185.468 131.591 213.942 145.46C224.001 150.358 233.193 155.378 234.33 156.585L236.396 158.785L232.533 160.213C222.394 163.964 195.081 170.331 156.369 177.969C145.77 180.06 136.49 182.292 135.802 182.916C133.936 184.6 135.441 186 139.125 186C144.735 186 201.996 174.363 221.485 169.261C238.192 164.89 242.971 161.616 240.838 156.003C239.501 152.484 235.228 149.902 212.055 138.612C189.871 127.802 176.423 119.684 169.213 112.744C165.978 109.632 165.35 108.488 165.35 105.706C165.35 103.91 166.14 100.854 167.069 99.0575C169.848 93.7001 180.619 83.9677 193.014 75.6176C207.743 65.6923 271.224 37.3862 268.351 42.0244C268.014 42.5717 261.724 47.5431 254.268 53.1566C241.336 62.896 238.898 65.6537 242.592 66.3589C243.385 66.5132 248.027 63.6609 252.966 59.9875C257.906 56.3142 264.997 51.0937 268.818 48.3115C276.452 42.7611 278.403 39.4667 275.375 37.2389C272.196 34.9057 266.035 35.8214 254.268 40.3824Z" fill="black"/>
<path d="M38.0555 31.0959C36.5438 35.005 38.0105 103.809 39.9779 121.226C40.7739 128.294 40.7578 128.399 38.646 130.511C36.6754 132.482 36.6048 132.787 37.7441 134.456C38.4149 135.441 39.5735 136.208 40.2892 136.141C41.0306 136.07 41.6051 136.25 41.6051 136.551C41.6051 136.843 42.5294 142.999 43.6591 150.23C44.7889 157.461 45.9154 167.811 46.1657 173.235C46.798 187.039 47.074 188.435 49.1633 188.435C50.8579 188.435 50.8804 188.23 50.3957 176.644C50.1261 170.167 48.8841 157.377 47.6452 148.259C45.6875 133.881 45.5495 131.554 46.6182 130.858C49.2371 129.147 60.9965 125.938 73.3207 123.572C80.4681 122.199 87.6861 120.642 89.2588 120.138C92.7923 118.999 95.8317 116.313 95.8317 114.326C95.8317 112.519 93.9734 112.378 92.5645 114.079C91.2647 115.648 88.6008 116.348 72.3322 119.394C65.0211 120.761 55.932 122.976 52.1641 124.307C48.3834 125.643 45.19 126.621 45.0552 126.487C43.672 125.1 41.4222 71.1913 41.7271 46.7066C41.9292 30.6851 41.8907 30.2678 40.2507 30.0271C39.2622 29.8827 38.3539 30.3256 38.0555 31.0959Z" fill="black"/>
<path d="M94.6089 38.0796C94.3297 38.5354 94.641 41.5298 95.3086 44.8162C96.6181 51.2415 97.5359 62.4007 99.5226 96.0035C101.355 126.978 103.024 136.876 111.035 164.197C113.034 171.018 115.223 178.54 115.939 181.041C117.534 186.628 119.11 188.846 120.974 188.124C121.908 187.761 122.12 187.081 121.713 185.765C121.395 184.744 119.922 179.314 118.426 173.646C116.931 167.978 114.588 159.512 113.201 154.749C107.123 133.872 105.409 121.557 103.268 83.2684C102.222 64.535 101.041 51.4341 99.8628 45.4742C98.5951 39.0649 96.1302 35.5955 94.6089 38.0796Z" fill="black"/>
</svg>
