<svg width="176" height="100" viewBox="0 0 176 100" fill="none" xmlns="http://www.w3.org/2000/svg">
<path d="M39.5187 1.95962C34.7908 7.03993 24.8703 28.3061 16.5341 51.219C14.4508 56.948 10.4651 67.1055 7.63962 73.8917C0.993735 89.8593 -1.23923 98.5199 0.940717 99.8703C2.03225 100.544 3.24541 98.5635 4.14359 94.6496C5.16651 90.1743 7.39324 83.8715 10.4059 76.9262C12.4112 72.295 12.9133 71.6868 13.8146 72.7753C15.2024 74.4531 17.0705 74.2909 17.5507 72.4571C17.7659 71.6276 18.7452 70.7232 19.7026 70.4674C21.9793 69.8562 33.116 69.8842 38.3055 70.5142L42.4564 71.0194L46.5294 78.0832C48.7842 81.9972 50.8082 86.3976 51.0609 87.9445C51.6284 91.3781 52.6358 92.1484 54.3542 90.4581C56.2191 88.6212 54.7689 83.7935 49.7073 75.0113C43.2486 63.7966 41.5551 57.525 41.1341 43.2352C40.9376 36.608 41.1684 28.4059 41.6456 24.8725C44.337 4.99408 44.5054 2.17169 43.0958 0.762049C41.9013 -0.432401 41.6705 -0.357553 39.5187 1.95962ZM38.1995 18.5665C35.5205 37.0883 35.9135 52.4072 39.3222 62.3152L40.8597 66.7874L31.1201 66.2697C24.9732 65.9422 20.2172 66.0732 18.2275 66.6284C16.4717 67.118 14.9685 67.3987 14.8344 67.2677C14.7034 67.1336 17.663 58.9627 21.3992 49.142C27.8673 32.139 38.1153 9.43195 38.9448 10.2615C39.1631 10.4798 38.8232 14.2534 38.1995 18.5665Z" fill="#D5D0C3"/>
<path d="M69.8134 24.074C67.9796 26.4006 67.8611 27.0274 65.6562 46.0295C63.4607 64.9504 63.7133 75.7878 66.4858 81.5574C67.5617 83.7934 68.5971 86.4287 68.8435 87.5452C69.2022 89.1731 69.8415 89.5879 72.3177 89.7969C76.6277 90.1618 83.4981 88.5681 86.6074 86.4786C89.96 84.2269 90.4964 80.8806 88.0046 77.7245C84.861 73.7388 80.0988 75.3294 76.057 81.7164L73.8334 85.2311L72.1462 83.073C69.7043 79.9512 68.0857 73.6546 68.0857 67.2676C68.0857 56.4895 71.3634 29.1294 73.0038 26.229C75.3958 21.997 72.8198 20.2568 69.8134 24.074ZM85.4473 81.2392C85.6407 82.2279 81.2589 85.1501 79.5811 85.1501C78.7671 85.1501 79.3378 83.6344 80.9065 81.6384C82.6654 79.4024 85.0512 79.1903 85.4473 81.2392Z" fill="#D5D0C3"/>
<path d="M163.729 33.8137C163.027 34.6058 161.119 38.8441 159.488 43.2352C155.63 53.6141 155.886 53.2492 151.435 54.7306C146.885 56.2494 143.894 59.6425 145.454 61.5168C146.673 62.9826 148.473 62.3963 149.124 60.3193C149.458 59.2589 150.319 58.8036 151.997 58.8036C153.431 58.8036 154.195 59.1217 153.902 59.602C152.91 61.2174 153.356 72.0579 154.529 74.8523C156.965 80.6655 164.771 85.9485 170.918 85.9485C174.669 85.9485 175.867 84.8476 175.867 81.3983C175.867 78.3639 173.621 77.5811 172.889 80.3598C172.333 82.4836 170.278 82.3807 165.569 79.9856C160.068 77.1881 158.013 73.9728 157.645 67.5858C157.479 64.7103 157.719 61.4357 158.184 60.2413C158.948 58.2703 159.419 58.0645 163.651 57.8461C167.643 57.6403 168.282 57.3846 168.282 56.0093C168.282 54.6402 167.684 54.3782 164.091 54.1724C161.777 54.0414 159.899 53.8262 159.899 53.6952C159.899 53.0777 165.6 37.4875 166.408 35.8907C167.945 32.8562 165.95 31.3094 163.729 33.8137Z" fill="#D5D0C3"/>
<path d="M97.3856 77.6526C97.0768 77.9552 96.8273 78.7223 96.8273 79.3617C96.8273 80.0104 96.1381 81.3982 95.2618 82.5146C91.4664 87.3517 94.3511 91.9112 101.137 91.8052C105.928 91.7303 109.399 90.1367 112.321 86.6656C114.741 83.7933 114.928 81.8535 112.954 80.0758C110.718 78.0581 98.8451 76.2118 97.3856 77.6526ZM109.842 82.6737C110.185 83.0199 109.321 84.2861 107.964 85.4306C106.015 87.071 104.571 87.5451 101.537 87.5451C97.1454 87.5451 96.5779 86.5377 99.0167 83.0729C100.292 81.2609 100.819 81.1206 104.811 81.5572C107.206 81.8192 109.492 82.3275 109.842 82.6737Z" fill="#D5D0C3"/>
<path d="M122.067 78.5228C121.321 79.2838 121.496 83.4254 122.294 83.9213C124.396 85.2186 131.398 85.8081 135.948 85.0658C140.657 84.2986 140.879 84.3423 142.666 86.4287C145.622 89.8779 153.787 89.1419 152.405 85.5492C152.062 84.6541 151.435 84.4202 150.319 84.7695C147.443 85.6677 145.528 84.4795 145.528 81.7974C145.528 79.4304 145.488 79.4085 142.135 79.8795C140.264 80.1445 136.148 80.5936 132.954 80.8774C127.446 81.3733 127.166 81.314 127.166 79.6799C127.166 78.3544 126.648 77.9646 124.889 77.9646C123.614 77.9646 122.375 78.211 122.067 78.5228Z" fill="#D5D0C3"/>
</svg>
