<svg width="239" height="60" viewBox="0 0 239 60" fill="none" xmlns="http://www.w3.org/2000/svg">
<path d="M10.0345 8.76496C9.50367 9.75531 9.03262 21.2937 9.28078 27.2059C9.59558 34.7059 9.59673 38.9327 9.28538 40.9708C9.06134 42.4414 9.09466 42.6712 9.55881 42.8401C10.3688 43.1365 10.7594 42.353 11.6153 38.7064C12.037 36.9118 12.6735 34.9116 13.0296 34.2647C13.5788 33.2652 13.8396 33.0756 14.7645 32.9998C15.741 32.9205 15.9375 33.0297 16.6762 34.0591C17.13 34.691 18.2847 36.8084 19.2498 38.7799C20.517 41.3672 21.1466 42.353 21.5292 42.353C22.4322 42.353 22.1381 41.0294 20.4377 37.4414C18.1112 32.5299 16.8991 31.1765 14.8231 31.1765C14.0878 31.1765 12.3644 31.9991 12.3564 32.353C12.3541 32.4322 12.1036 32.824 11.8084 33.2055C11.2672 33.9086 11.2638 33.8971 10.8973 30.0736C10.6089 27.0634 10.602 24.5439 10.8674 18.3973C11.0547 14.074 11.3499 10.2424 11.528 9.85297C12.0898 8.61791 10.6675 7.58045 10.0345 8.76496Z" fill="#161619"/>
<path d="M51.466 13.5595C50.7295 14.9301 48.5397 27.0292 48.5329 29.7647C48.5306 30.6183 48.3663 31.2525 48.0882 31.4823C47.5885 31.8959 47.508 33.1413 47.971 33.301C48.1491 33.3619 48.4134 34.0593 48.5604 34.8531C49.0935 37.738 50.4998 38.8237 53.7063 38.8237C55.5584 38.8237 55.9375 38.7284 56.7348 38.0586C57.6471 37.2934 57.9228 36.3904 57.3529 36.0365C57.1921 35.9354 56.6475 36.1916 56.1466 36.6029C55.4354 37.1877 54.9115 37.3531 53.7649 37.3531C51.08 37.3531 50 36.2065 50 33.3527C50 31.8132 50.471 31.4156 53.3238 30.5494C54.8529 30.0841 55.301 29.8302 55.2263 29.4706C55.0804 28.7594 52.7642 28.841 51.2063 29.6107L49.9414 30.2357L50.1448 28.4124C50.4802 25.4069 51.4442 20.0301 52.2438 16.7063C52.6608 14.9703 52.9182 13.4274 52.8171 13.2654C52.5034 12.7621 51.813 12.9115 51.466 13.5595Z" fill="#161619"/>
<path d="M69.1337 16.7348C68.6696 17.6091 68.7546 28.2938 69.244 30.618C69.5967 32.2943 71.0869 36.6566 71.744 37.9411C72.0887 38.6132 72.7757 38.4708 72.8791 37.7056C72.9297 37.3368 72.5023 35.6318 71.9416 33.9556C71.3798 32.2793 70.7732 29.7862 70.6078 28.4708C70.2183 25.3825 70.2034 18.3593 70.5836 17.647C70.8042 17.2357 70.7583 16.9645 70.4113 16.6176C69.8231 16.0282 69.4922 16.0592 69.1337 16.7348Z" fill="#161619"/>
<path d="M133.702 17.4114C133.142 19.16 132.282 25.2641 132.155 28.3822C132.031 31.4406 132.1 32.5883 132.499 34.1175C133.482 37.8824 134.881 38.0617 137.093 34.7057L137.559 34.0003L138.559 34.7391C139.912 35.7386 141.333 36.2763 142.089 36.0752C142.435 35.9833 143.235 36.1901 143.912 36.5463C145.206 37.2287 148.117 37.5573 148.794 37.0989C149.614 36.5428 148.912 35.8822 147.5 35.8822C145.941 35.8822 143.602 35.0045 144.559 34.7793C144.868 34.7057 145.618 34.3301 146.235 33.9383C148.265 32.6527 148.721 31.0798 147.176 30.6961C145.184 30.2021 142.353 32.3827 142.353 34.4116C142.353 34.7356 142.26 34.9999 142.147 34.9999C141.529 34.9999 139.386 33.6763 138.958 33.0295C138.489 32.3229 138.502 32.2494 139.265 31.1614C139.698 30.5444 140.246 29.9574 140.471 29.87C140.941 29.6885 141.014 28.9394 140.588 28.6775C139.701 28.1318 138.226 29.6759 135.897 33.5879C135.338 34.5288 134.751 35.2515 134.589 35.1975C133.466 34.8321 133.316 27.5883 134.315 22.0587C134.985 18.3523 134.986 17.2574 134.323 17.1265C134.059 17.0759 133.766 17.2092 133.702 17.4114Z" fill="#161619"/>
<path d="M94.3819 18.9294C91.1041 20.0978 86.4913 24.7061 84.3325 28.9708C83.3054 30.9997 82.9297 34.1833 83.511 35.9411C84.3348 38.4331 87.5885 41.033 91.412 42.2555C94.4118 43.2148 99.8173 43.587 100.1 42.8529C100.357 42.1819 100.059 42.0728 96.6762 41.5994C91.5591 40.8837 88.125 39.4499 86.296 37.2647C85.2217 35.9825 84.946 35.1174 84.9644 33.0884C84.9874 30.5792 86.4763 27.6771 89.2348 24.7647C92.0496 21.7948 94.3681 20.2943 96.1466 20.2943C97.8527 20.2943 99.1636 21.0698 100.173 22.6771C102.741 26.7649 102.181 30.6309 98.7649 32.383C98.1767 32.6851 97.2714 32.9414 96.7946 32.9414H95.9122L96.4855 31.6914C96.7957 31.0147 97.0588 30.2116 97.0588 29.9416C97.0588 29.2373 96.0593 28.7697 95.2355 29.0891C93.9648 29.5808 91.3867 32.7058 91.0145 34.2063C90.5905 35.9158 92.3231 36.4156 94.0591 35.084C94.8909 34.4453 95.3527 34.3085 96.4706 34.3683C98.1767 34.4602 99.5852 33.8915 101.147 32.4806C103.478 30.3747 103.857 26.6764 102.105 23.1183C101.019 20.9124 99.3578 19.2833 97.7355 18.834C96.3235 18.4423 95.6985 18.4607 94.3819 18.9294ZM95 31.4708C95 31.6385 94.8679 31.7649 94.6909 31.7649C94.5152 31.7649 94.4577 31.6385 94.5588 31.4708C94.6645 31.2938 94.7886 31.1766 94.8679 31.1766C94.9471 31.1766 95 31.2938 95 31.4708ZM93.565 33.6181C92.7056 34.4866 92.5448 34.1178 93.31 33.0298C93.7845 32.3531 93.9993 32.2164 94.074 32.5438C94.1326 32.8046 93.9143 33.2653 93.565 33.6181Z" fill="#161619"/>
<path d="M187.47 19.2647C187.374 19.5244 187.36 22.2059 187.441 25.2356C187.572 30.1471 187.672 30.995 188.367 33.1618C188.793 34.4853 189.074 35.7089 188.986 35.8525C188.902 35.9904 189.014 36.273 189.221 36.4408C189.513 36.6797 189.764 36.6567 190.177 36.3534C190.723 35.9502 190.717 35.8675 189.912 32.6034C189.249 29.9127 189.049 28.2652 188.882 24.1177C188.698 19.529 188.62 18.9614 188.162 18.8822C187.868 18.8316 187.571 18.9959 187.47 19.2647Z" fill="#161619"/>
<path d="M152.876 22.0002C152.376 23.0882 151.753 24.7277 151.486 25.6617C151.08 27.0737 150.835 27.4391 150 27.8722C148.647 28.5742 148.264 29.2635 148.882 29.8828C149.308 30.3078 149.404 30.2941 149.889 29.7357C150.678 28.8246 150.882 28.9705 150.882 30.4411C150.882 34.5588 155.47 38.6477 157.647 36.4705C158.133 35.9845 158.246 35.5583 158.177 34.4703C158.112 33.4708 157.966 33.0882 157.647 33.0882C157.405 33.0882 157.167 33.3524 157.119 33.6764C156.768 36.0592 156.186 36.1856 154.295 34.2945C152.323 32.323 151.687 29.3566 153.118 28.8097C153.529 28.6534 153.932 28.3226 154.033 28.0583C154.241 27.5114 153.618 27.0392 153 27.2771C152.414 27.5034 152.73 26.088 153.941 23.0583C154.459 21.7647 154.83 20.5468 154.767 20.3527C154.483 19.4887 153.727 20.147 152.876 22.0002Z" fill="#161619"/>
<path d="M181.265 25.2296C180.264 25.3905 179.849 26.0695 180.237 26.9116C180.628 27.7641 181.399 27.8916 181.665 27.1471C181.769 26.853 182.023 26.5153 182.236 26.3877C183.169 25.8282 182.5 25.0297 181.265 25.2296Z" fill="#161619"/>
<path d="M203.882 27.9816C202.028 28.903 200.261 31.3536 199.839 33.5882C199.59 34.9117 200.279 36.3008 201.5 36.9292C202.736 37.5668 205.056 37.8024 205.853 37.3727C206.441 37.0544 206.728 36.1997 206.265 36.1457C206.134 36.1296 205.324 36.0652 204.442 35.9986C201.676 35.7907 200.936 34.8003 201.869 32.5588C202.322 31.4708 203.643 29.8267 204.382 29.4304C204.82 29.1971 204.889 29.2649 204.783 29.8233C204.597 30.7941 205.465 31.0652 206.009 30.2059C206.81 28.9409 206.837 28.3251 206.118 27.8208C205.308 27.2532 205.353 27.2498 203.882 27.9816Z" fill="#161619"/>
<path d="M212.383 30.1691C211.853 30.3977 211.171 30.5884 210.882 30.5884C210.171 30.5884 208.303 33.0298 208.07 34.2649C207.631 36.588 208.912 37.4944 212.323 37.275C218.618 36.8706 221.071 32.7932 216.412 30.4781C214.676 29.6165 213.817 29.551 212.383 30.1691ZM216.059 32.0854C216.765 32.5232 217.059 32.9218 217.059 33.4411C217.059 34.5751 214.589 35.5884 211.823 35.5884C209.823 35.5884 209.706 35.5517 209.706 34.9267C209.706 34.5739 209.813 34.1144 209.935 33.9409C210.232 33.5204 211.235 33.1367 211.853 33.2079C212.117 33.2378 212.422 33.0505 212.5 32.8092C212.585 32.5438 212.705 32.1682 212.784 31.9119C212.986 31.2559 214.883 31.3559 216.059 32.0854Z" fill="#161619"/>
<path d="M77.5 30.6444C74.8231 32.123 73.4926 35.7972 75.0885 37.3045C75.9961 38.1627 77.3231 38.5178 79.7943 38.5637C81.8532 38.6016 82.562 38.3155 82.2737 37.5584C82.1622 37.2655 81.4556 37.1092 79.8093 37.015C78.5443 36.9415 77.1944 36.7163 76.8233 36.5141C76.1523 36.1499 76.1615 36.1326 78.0733 34.3231C79.5152 32.9594 80 32.2999 80 31.7059C80 30.4996 78.7351 29.9631 77.5 30.6444ZM77.6471 32.7939C77.2679 33.2053 76.906 33.4649 76.8233 33.3822C76.6234 33.1823 77.6471 32.0587 78.0296 32.0587C78.1939 32.0587 78.0262 32.3826 77.6471 32.7939Z" fill="#161619"/>
<path d="M38.2054 31.3065C36.559 32.182 35.2941 33.6193 35.2941 34.6176C35.2941 35.6034 36.7647 36.9361 38.5593 37.5749C39.3532 37.8575 40 38.1815 40 38.2941C40 38.409 38.9855 38.8215 37.7206 39.2213C35.926 39.7877 35.4228 40.0726 35.3527 40.5586C35.2815 41.0584 35.4113 41.1767 36.0294 41.1767C37.1174 41.1767 42.2323 39.4717 42.6459 38.9708C43.3628 38.1034 42.7056 37.4497 40.1471 36.4835C37.2357 35.384 36.636 34.9175 37.0738 34.088C37.3242 33.6135 39.8828 32.059 40.4113 32.059C40.4952 32.059 40.4251 32.4416 40.2516 32.9414C39.5025 35.0887 40.9455 35.0887 41.9141 32.9414C42.6206 31.3743 42.2943 30.7585 40.7054 30.6597C39.9575 30.6137 39.0878 30.8378 38.2054 31.3065Z" fill="#161619"/>
<path d="M107.221 31.559C106.986 31.9313 106.662 33.1468 106.5 34.2647C106.244 36.0294 106.279 36.4591 106.768 37.5586C107.408 39.0004 108.073 39.3979 108.735 38.735C109.164 38.3076 109.16 38.1617 108.706 37.1323C108.362 36.3522 108.233 35.4561 108.294 34.2497L108.382 32.5H110.441C112.059 32.5 112.5 32.4058 112.5 32.0588C112.5 31.3729 111.176 30.8823 109.323 30.8823C107.911 30.8823 107.579 30.9892 107.221 31.559Z" fill="#161619"/>
<path d="M126.382 31.6959C125.088 32.6725 123.658 34.5532 123.379 35.647C123.222 36.2651 123.343 36.6086 123.927 37.1911C124.594 37.8586 124.912 37.9413 126.823 37.9413C129.529 37.9413 130.294 37.7403 130.294 37.0291C130.294 36.527 130.044 36.4707 127.809 36.4707C126.309 36.4707 125.248 36.342 125.132 36.1467C125.026 35.9675 125.322 35.2793 125.794 34.6026C126.473 33.6329 126.798 33.4009 127.383 33.471C127.948 33.5387 128.197 33.3825 128.464 32.7943C128.93 31.7648 128.899 31.2674 128.352 31.0537C127.653 30.7791 127.559 30.809 126.382 31.6959Z" fill="#161619"/>
<path d="M182.48 31.2066C182.362 31.3985 182.205 32.4417 182.132 33.4998C182.017 35.1772 182.085 35.5494 182.626 36.2353C183.369 37.1763 183.861 37.2728 184.431 36.588C184.76 36.194 184.721 36.0389 184.191 35.6321C183.668 35.2312 183.543 34.7946 183.47 33.1184C183.383 31.1767 182.977 30.3909 182.48 31.2066Z" fill="#161619"/>
<path d="M166.176 31.3706C162.236 31.5004 162.236 31.5004 161.764 33.2939L161.353 34.8529L161.191 33.8235C161.066 33.0296 160.895 32.7941 160.441 32.7941C159.521 32.7941 159.434 35.1769 160.313 36.2936C161.357 37.6206 162.088 37.2644 162.787 35.0884L163.382 33.2353L165.353 33.179C169.764 33.0526 169.563 33.0181 169.465 33.8821C169.352 34.8678 170.294 35.8823 171.324 35.8823C172.323 35.8823 172.57 35.2987 171.823 34.6978C171.38 34.3405 171.176 33.8534 171.176 33.1468C171.176 31.4338 170.588 31.2247 166.176 31.3706Z" fill="#161619"/>
<path d="M175.705 31.75C173.941 32.8288 173.094 34.4476 173.882 35.2358C174.289 35.6413 175.558 35.6953 176.118 35.3288C176.376 35.1588 177.191 35.3265 178.309 35.7792C179.28 36.1721 180.276 36.4283 180.5 36.341C181.304 36.0308 180.852 35.4024 179.265 34.6188C177.736 33.8628 177.261 33.208 177.941 32.7909C178.411 32.5025 178.294 31.557 177.764 31.3594C177.037 31.0871 176.676 31.156 175.705 31.75Z" fill="#161619"/>
<path d="M222.298 32.206C222.075 32.7057 221.811 32.8907 221.471 32.785C220.68 32.5368 220 33.4123 220 34.6761C220 36.8532 221.834 36.967 222.839 34.853C223.359 33.757 223.618 33.6846 225.677 34.0568C226.648 34.2326 226.88 34.4279 227.189 35.3241C227.747 36.9417 229.081 38.5295 229.883 38.5295C230.801 38.5295 230.797 37.8827 229.87 36.6763C229.476 36.1628 229.013 35.1471 228.852 34.4417C228.524 32.9964 228.235 32.7299 226.765 32.5081C226.205 32.4242 225.117 32.1508 224.382 31.9107C222.647 31.3431 222.683 31.3385 222.298 32.206Z" fill="#161619"/>
<path d="M116.147 32.3829C114.736 33.7937 113.977 36.8658 114.702 38.2353C115.085 38.958 117.089 39.5232 118.324 39.2556C121.5 38.5697 123.416 36.0846 122.33 34.0591C121.907 33.2709 119.559 32.2542 118.676 32.4759C118.235 32.5874 117.941 32.4931 117.83 32.2059C117.596 31.5982 116.853 31.6763 116.147 32.3829ZM118.382 34.3969C119.013 33.8075 119.118 33.7948 119.941 34.2222C121.176 34.8622 121.321 35.1816 120.762 36.0294C120.076 37.0704 118.676 37.6954 117.264 37.5908C116.206 37.5127 116.014 37.3989 115.926 36.7946C115.871 36.4086 116.057 35.5733 116.338 34.9564C116.832 33.8672 116.869 33.8465 117.279 34.4267L117.706 35.0299L118.382 34.3969Z" fill="#161619"/>
<path d="M59.9988 34.8828C59.4876 36.2064 59.6496 37.0611 60.5882 37.9998L61.5005 38.912L63.9855 38.7202L66.4706 38.5294V40.0736C66.4706 40.9559 66.7831 42.5 67.2001 43.6765C68.1801 46.4407 68.1629 47.2829 67.1174 47.6839C65.9272 48.1411 60.6181 49.3865 59.3233 49.5129C57.824 49.6588 57.3047 50.1919 58.0882 50.779C58.8028 51.3155 60.6767 51.1259 64.6473 50.1184C69.8231 48.804 70.2734 48.1549 68.8706 44.0292C68.2514 42.2059 67.9412 40.7353 67.9412 39.6174C67.9412 37.7941 67.1967 36.5924 66.2351 36.8647C65.1471 37.1726 62.6505 37.3874 62.1174 37.2185C61.2937 36.9589 61.0765 36.1926 61.6464 35.5584C62.284 34.8495 61.9704 34.1177 61.0294 34.1177C60.4917 34.1177 60.2148 34.3233 59.9988 34.8828Z" fill="#161619"/>
<path d="M193.93 35.4411C193.699 36.0327 194.029 36.4705 194.706 36.4705C195.383 36.4705 195.65 36.0925 195.414 35.4709C195.191 34.8827 194.157 34.862 193.93 35.4411Z" fill="#161619"/>
<path d="M26.9416 41.088C26.5912 41.4384 26.7348 42.0668 27.2059 42.2472C27.7941 42.4724 28.5317 41.8428 28.3215 41.2936C28.1526 40.8524 27.3035 40.7261 26.9416 41.088Z" fill="#161619"/>
</svg>
