<svg width="550" height="195" viewBox="0 0 550 195" fill="none" xmlns="http://www.w3.org/2000/svg">
<path d="M1.05546 1.09588C-0.456179 5.00497 1.01053 73.8088 2.97791 91.2264C3.77385 98.2936 3.75781 98.3995 1.646 100.511C-0.324593 102.482 -0.3952 102.787 0.744149 104.456C1.41492 105.441 2.57353 106.208 3.28923 106.141C4.03061 106.07 4.6051 106.25 4.6051 106.551C4.6051 106.843 5.52941 112.999 6.65913 120.23C7.78885 127.461 8.91537 137.811 9.1657 143.235C9.79796 157.039 10.074 158.435 12.1633 158.435C13.8579 158.435 13.8804 158.23 13.3957 146.644C13.1261 140.167 11.8841 127.377 10.6453 118.259C8.6875 103.881 8.54949 101.554 9.61823 100.858C12.2371 99.1473 23.9965 95.9378 36.3207 93.5725C43.4681 92.1988 50.6861 90.6423 52.2588 90.1384C55.7923 88.999 58.8317 86.3127 58.8317 84.3261C58.8317 82.5192 56.9734 82.378 55.5645 84.079C54.2647 85.6484 51.6008 86.348 35.3322 89.3938C28.0211 90.761 18.932 92.9755 15.1641 94.3074C11.3834 95.6426 8.19003 96.6214 8.05524 96.4866C6.67197 95.1002 4.42216 41.1913 4.72706 16.7066C4.92925 0.685073 4.89074 0.267847 3.25072 0.0271396C2.26221 -0.117285 1.35394 0.325617 1.05546 1.09588Z" fill="#D5D0C3"/>
<path d="M391.586 5.5088C366.773 15.1307 338.64 29.3838 326.514 38.4793C317.146 45.5048 309.658 53.0405 307.492 57.6236C305.547 61.7316 305.73 68.4233 307.88 71.9184C311.754 78.2217 328.649 88.9444 354.696 101.631C363.898 106.112 372.307 110.704 373.346 111.808L375.237 113.821L371.703 115.127C362.428 118.558 337.442 124.383 302.03 131.37C292.334 133.283 283.845 135.324 283.216 135.895C281.508 137.436 282.885 138.716 286.255 138.716C291.387 138.716 343.768 128.071 361.597 123.404C376.88 119.405 381.251 116.411 379.3 111.276C378.077 108.057 374.168 105.694 352.97 95.3665C332.676 85.4782 320.375 78.0516 313.779 71.7034C310.82 68.8566 310.246 67.8103 310.246 65.2652C310.246 63.622 310.968 60.8266 311.818 59.1834C314.36 54.2826 324.213 45.3796 335.552 37.7411C349.025 28.6616 407.097 2.76795 404.468 7.01082C404.16 7.51149 398.406 12.0593 391.586 17.1943C379.756 26.1037 377.525 28.6263 380.905 29.2714C381.63 29.4127 385.876 26.8034 390.395 23.4431C394.914 20.0828 401.4 15.3072 404.895 12.7621C411.879 7.6848 413.663 4.67114 410.894 2.63315C407.986 0.498878 402.35 1.33654 391.586 5.5088Z" fill="#D5D0C3"/>
<path d="M57.6089 8.07962C57.3297 8.53536 57.641 11.5298 58.3086 14.8162C59.6181 21.2415 60.5359 32.4007 62.5226 66.0035C64.3552 96.9777 66.0241 106.876 74.0348 134.197C76.0343 141.018 78.2231 148.54 78.9388 151.041C80.5339 156.628 82.1098 158.846 83.9744 158.124C84.9084 157.761 85.1202 157.081 84.7126 155.765C84.3949 154.744 82.9217 149.314 81.4261 143.646C79.9306 137.978 77.5877 129.512 76.2012 124.749C70.1225 103.872 68.4087 91.557 66.268 53.2684C65.2217 34.535 64.0406 21.4341 62.8628 15.4742C61.5951 9.06492 59.1302 5.59552 57.6089 8.07962Z" fill="#D5D0C3"/>
<path d="M409.825 46.8592C408.323 48.3613 408.914 73.9725 410.961 96.2396C411.356 100.511 411.221 101.818 410.361 102.071C409.742 102.254 407.691 102.819 405.717 103.345C403.746 103.875 401.978 104.834 401.718 105.524C400.97 107.495 402.267 112.489 403.663 113.015C405.274 113.622 406.497 111.687 405.958 109.385C405.662 108.131 406.047 107.53 407.36 107.19C411.305 106.166 411.966 106.548 412.556 110.207C412.864 112.12 414.411 117.682 416.029 122.695C417.646 127.708 418.904 132.904 418.853 134.361C418.744 137.484 419.697 138.267 422.069 137.006C423.552 136.216 423.728 135.594 423.34 132.554C423.096 130.632 421.934 126.27 420.795 122.984C419.652 119.697 418.163 114.585 417.524 111.767C416.071 105.358 416.071 105.358 425.93 106.25C437.513 107.293 438.829 107.254 438.829 105.852C438.829 103.557 434.146 102.183 424.861 101.753L415.823 101.333L415.329 95.5816C415.06 92.4236 414.337 81.7362 413.728 71.8768C412.697 55.2006 412.72 53.8687 414.017 53.1305C415.74 52.1516 415.788 50.0655 414.142 47.6809C412.726 45.6268 411.324 45.3604 409.825 46.8592Z" fill="#D5D0C3"/>
<path d="M492.853 52.1997C491.864 54.7961 495.706 96.3198 498.37 111.85C499.949 121.052 503.136 130.452 505.614 133.212C506.721 134.445 507.106 134.512 507.928 133.623C508.714 132.769 508.444 131.158 506.57 125.571C505.283 121.729 503.479 114.151 502.565 108.727C500.883 98.7686 497.853 71.2605 496.984 58.0344C496.56 51.6252 496.329 50.8036 494.946 50.8036C494.124 50.8036 493.132 51.4647 492.853 52.1997Z" fill="#D5D0C3"/>
<path d="M526.331 107.447C522.88 108.5 517.803 111.314 516.176 113.083C515.361 113.968 514.465 116.205 514.231 117.929C513.377 124.239 519.674 128.558 535.532 132.541C541.203 133.966 545.295 134.576 546.871 134.23C552.221 133.048 550.404 130.253 543.748 129.428C538.902 128.825 525.381 124.951 524.276 123.844C523.718 123.289 524.155 122.444 525.631 121.215C526.825 120.227 529.37 118.163 531.26 116.655C533.151 115.149 535.128 112.973 535.631 111.85C537.336 108.053 532.246 105.646 526.331 107.447ZM530.047 112.425C529.765 112.88 527.81 114.421 525.673 115.875C523.538 117.329 521.52 118.982 521.157 119.572C520.018 121.437 518.82 120.724 519.093 118.34C519.295 116.574 520.252 115.666 523.782 113.888C528.385 111.574 530.955 110.971 530.047 112.425Z" fill="#D5D0C3"/>
<path d="M451.811 114.61C449.933 115.377 450.742 118.673 453.454 121.305C456.994 124.743 463.066 127.31 468.901 127.843L473.747 128.283V132.06C473.747 134.169 474.656 138.389 475.801 141.592C476.947 144.795 477.855 148.544 477.855 150.055C477.855 155.325 471.199 159.311 457.809 162.065C454.356 162.774 451.182 163.182 450.825 162.96C449.741 162.293 448.21 164.681 448.775 166.157C449.471 167.986 454.356 167.877 462.903 165.843C471.199 163.869 476.889 161.08 479.858 157.53C481.992 154.982 482.105 154.449 481.758 148.617C481.527 144.757 480.728 141.018 479.637 138.716C477.57 134.361 477.345 130.317 479.088 128.876C479.839 128.254 480.298 127.05 480.156 126.065C479.938 124.531 479.171 124.28 473.336 123.812C463.477 123.022 456.371 120.066 454.86 116.122C454.073 114.068 453.65 113.859 451.811 114.61Z" fill="#D5D0C3"/>
<path d="M118.399 125.201C117.959 125.311 116.508 125.641 115.276 125.911C112.664 126.482 101.992 136.251 100.211 139.702C98.388 143.235 98.7057 146.011 101.061 147.07C104.146 148.46 108.129 147.295 114.127 143.251C119.468 139.65 119.631 139.596 119.631 141.509C119.631 144.121 121.438 145.87 125.219 146.916C129.491 148.097 132.09 147.966 134.257 146.461C137.254 144.375 135.98 143.303 130.476 143.274C123.986 143.242 123.12 142.398 124.346 137.32C124.885 135.103 125.049 131.778 124.725 129.72C124.221 126.514 123.845 125.997 121.685 125.529C120.289 125.227 118.864 125.083 118.399 125.201ZM120.453 131.238C120.453 133.103 119.548 134.213 115.687 137.083C110.841 140.687 104.197 144.07 103.446 143.319C102.75 142.622 106.238 138.299 110.841 134.153C117.25 128.376 120.453 127.406 120.453 131.238Z" fill="#D5D0C3"/>
<path d="M168.19 128.774C166.579 130.385 166.139 131.896 165.212 138.964C164.653 143.235 163.668 143.479 162.882 139.538C162.201 136.142 159.569 136.499 159.22 140.032C158.764 144.631 165.032 149.574 167.766 146.769C168.617 145.896 170.571 135.594 170.571 131.98C170.571 131.415 171.804 131.28 173.858 131.62C177.802 132.272 179.035 130.882 176.406 128.748C173.941 126.745 170.206 126.758 168.19 128.774Z" fill="#D5D0C3"/>
<path d="M147.239 129.268C146.26 130.247 145.913 132.307 145.881 137.32L145.839 144.057L143.448 141.265C141.202 138.633 138.528 138.142 138.528 140.36C138.528 142.086 145.554 151.041 146.908 151.041C147.242 151.041 148.019 150.508 148.757 149.767C149.745 148.778 150.031 146.685 150.031 140.443C150.031 131.322 150.031 131.322 156.11 131.322C159.974 131.322 160.792 130.889 160.144 129.184C159.492 127.474 148.962 127.541 147.239 129.268Z" fill="#D5D0C3"/>
<path d="M186.346 134.772C185.033 136.088 185.033 139.262 186.346 140.064C188.775 141.547 196.452 141.836 202.942 140.687C212.801 138.944 212.201 138.617 212.65 145.947C213 151.618 213.59 153.589 217.352 161.558C222.275 171.992 222.965 176.652 219.952 179.081C218.95 179.887 213.295 182.438 207.297 184.791C194.562 189.788 190.29 191.855 190.29 193.026C190.29 195.061 193.576 194.49 204.832 190.497C224.714 183.449 226.441 182.201 226.441 174.867C226.441 170.872 225.796 168.869 222.044 161.227C217.933 152.848 217.622 151.779 217.198 144.59C216.951 140.401 216.373 136.534 215.924 136.088C215.417 135.581 212.968 135.459 209.514 135.767C191.195 137.417 190.393 137.407 188.868 135.513C187.677 134.034 187.222 133.899 186.346 134.772Z" fill="#D5D0C3"/>
</svg>
