<svg width="109" height="72" viewBox="0 0 109 72" fill="none" xmlns="http://www.w3.org/2000/svg">
<path d="M98.7364 4.71813C86.4102 9.49811 72.4338 16.5788 66.4102 21.0973C61.7561 24.5874 58.0364 28.331 56.9602 30.6078C55.994 32.6486 56.0849 35.9729 57.1531 37.7092C59.0776 40.8406 67.4704 46.1675 80.4105 52.4701C84.9816 54.6959 89.1589 56.9774 89.6755 57.5259L90.6146 58.5256L88.8592 59.1745C84.2514 60.8789 71.8391 63.7727 54.2466 67.2437C49.4299 68.194 45.2128 69.208 44.9003 69.4918C44.052 70.2571 44.736 70.8933 46.4101 70.8933C48.9596 70.8933 74.9816 65.6047 83.8384 63.2864C91.4309 61.2998 93.6025 59.8123 92.6331 57.2612C92.0256 55.6621 90.0837 54.4886 79.5527 49.3578C69.4714 44.4455 63.3601 40.7561 60.0836 37.6024C58.6136 36.1882 58.3282 35.6684 58.3282 34.4041C58.3282 33.5877 58.6869 32.199 59.1095 31.3827C60.3722 28.9481 65.267 24.5252 70.9 20.7306C77.5932 16.2201 106.442 3.35652 105.136 5.4643C104.983 5.71302 102.124 7.97227 98.7364 10.5233C92.8595 14.9493 91.7514 16.2025 93.4303 16.523C93.7906 16.5931 95.9 15.2969 98.1449 13.6276C100.39 11.9582 103.612 9.5858 105.348 8.32145C108.818 5.79912 109.704 4.30199 108.328 3.28955C106.884 2.22928 104.084 2.64542 98.7364 4.71813Z" fill="#218380"/>
<path d="M0.47965 0.498017C-0.207308 2.27448 0.459231 33.542 1.3533 41.4573C1.71501 44.669 1.70771 44.7171 0.748016 45.6768C-0.14751 46.5723 -0.179597 46.7109 0.338174 47.4693C0.643003 47.9171 1.16952 48.2657 1.49477 48.235C1.83169 48.203 2.09276 48.2846 2.09276 48.4217C2.09276 48.5545 2.51281 51.3519 3.02621 54.6379C3.5396 57.9239 4.05154 62.6276 4.1653 65.0925C4.45263 71.3655 4.57806 72 5.52755 72C6.29765 72 6.30785 71.9067 6.08762 66.6414C5.9651 63.6982 5.40066 57.886 4.83768 53.7424C3.94799 47.2083 3.88527 46.1508 4.37095 45.8343C5.5611 45.0569 10.9051 43.5984 16.5058 42.5235C19.7539 41.8993 23.034 41.1919 23.7487 40.9629C25.3545 40.4451 26.7357 39.2244 26.7357 38.3216C26.7357 37.5004 25.8913 37.4362 25.251 38.2092C24.6603 38.9225 23.4497 39.2404 16.0565 40.6245C12.734 41.2459 8.60355 42.2522 6.89126 42.8575C5.17313 43.4643 3.72192 43.9091 3.66066 43.8478C3.03204 43.2178 2.00963 18.7192 2.14819 7.59221C2.24007 0.311328 2.22257 0.121722 1.47727 0.0123335C1.02805 -0.0532994 0.615291 0.147975 0.47965 0.498017Z" fill="#218380"/>
<path d="M26.1803 3.67174C26.0534 3.87885 26.1949 5.23964 26.4983 6.73315C27.0933 9.65309 27.5105 14.7243 28.4133 29.9949C29.2461 44.071 30.0045 48.569 33.645 60.9853C34.5536 64.0847 35.5483 67.5034 35.8736 68.6396C36.5984 71.1789 37.3146 72.1867 38.162 71.8585C38.5864 71.6937 38.6826 71.3845 38.4974 70.7865C38.353 70.3227 37.6836 67.8549 37.0039 65.2792C36.3242 62.7035 35.2595 58.8559 34.6295 56.6915C31.867 47.2039 31.0882 41.6076 30.1154 24.2076C29.6399 15.6942 29.1032 9.7406 28.5679 7.03215C27.9918 4.11951 26.8716 2.54286 26.1803 3.67174Z" fill="#218380"/>
</svg>
