<svg width="310" height="100" viewBox="0 0 310 100" fill="none" xmlns="http://www.w3.org/2000/svg">
<path d="M52.2831 3.86569C44.4381 8.36925 39.1401 10.705 33.2246 12.2645C28.5168 13.5061 21.9158 13.7558 18.5222 12.8183C16.082 12.1442 13.9483 9.83336 14.3523 8.30115C14.5067 7.72005 14.2161 6.90968 13.6986 6.47839C12.441 5.42741 11.0836 6.61686 11.0836 8.76649C11.0836 11.041 2.54862 68.5613 1.425 73.8503C0.353586 78.9054 0.512482 81.8995 1.90169 82.7666C3.3204 83.6496 3.76531 82.9164 3.60868 79.9519C3.53377 78.5036 4.00365 74.8082 4.66194 71.6711C5.31795 68.5545 7.30188 56.0675 9.07243 43.9233C12.3752 21.2602 13.433 14.5775 13.7167 14.5775C13.8007 14.5775 14.8903 15.027 16.1093 15.565C17.7209 16.2777 19.975 16.5524 24.1585 16.5524C33.4108 16.5524 41.5326 13.8262 53.5633 6.68268C56.9909 4.64655 60.0099 2.95544 60.2165 2.95544C60.4253 2.95544 60.439 4.9598 60.246 7.459C60.0531 9.93097 59.733 18.1232 59.5355 25.6185C59.1156 41.4241 59.3789 43.5692 63.2287 55.5455C64.6474 59.9628 66.3907 66.4003 67.074 69.753C67.9956 74.2861 68.5495 75.8841 69.1941 75.8841C69.891 75.8841 70.0522 75.0715 69.9954 71.8164C69.9182 67.5194 68.7311 62.1124 65.4464 51.0714C61.9666 39.3857 61.7714 35.7879 63.1629 9.23183C63.7349 -1.6934 62.7838 -2.16328 52.2831 3.86569Z" fill="#D5D0C3"/>
<path d="M175.768 10.7641C173.562 11.7175 172.05 13.7378 172.05 15.7399C172.05 17.1926 174.969 22.8834 176.058 23.553C176.342 23.7278 176.864 23.5258 177.193 23.1194C177.641 22.5633 177.427 21.5509 176.379 19.2855C175.6 17.5989 174.955 15.8102 174.955 15.3335C174.955 13.9443 178.673 12.8343 183.322 12.8343C187.24 12.8343 188.089 13.0681 192.854 15.4584C202.383 20.2366 207.032 26.034 207.15 33.2888L207.207 36.7754L203.895 39.8671C199.988 43.5103 195.41 46.1911 187.39 49.5279C181.116 52.1384 180.185 52.6968 180.185 53.8613C180.185 55.1097 181.638 54.8555 187.333 52.6037C198.722 48.1024 206.339 43.1993 209.034 38.6345C210.382 36.3532 210.539 35.5565 210.287 32.3604C209.735 25.4439 206.217 19.9756 199.421 15.472C192.854 11.1228 189.313 9.93562 182.975 9.96286C179.779 9.97875 176.835 10.3033 175.768 10.7641Z" fill="#D5D0C3"/>
<path d="M179.168 27.9428C178.773 28.5761 178.442 30.7621 178.442 32.7369C178.442 34.7254 177.784 40.7861 176.989 46.1318C175.214 58.0445 175.125 64.9315 176.662 71.3509C178.124 77.4525 180.582 83.5541 181.754 83.9922C183.658 84.6981 183.822 83.2635 182.296 79.2548C178.34 68.8608 177.827 60.8342 180.058 44.2137C181.688 32.0695 181.89 27.1597 180.766 26.9463C180.287 26.8555 179.568 27.3027 179.168 27.9428Z" fill="#D5D0C3"/>
<path d="M275.151 38.0534C274.37 39.2337 274.245 40.2325 274.585 42.616C274.826 44.3003 275.398 48.3975 275.863 51.7684C276.329 55.1392 276.935 60.2897 277.218 63.2747C277.768 69.0858 278.894 72.0367 282.224 76.4063C283.685 78.3244 284.655 79.0803 285.656 79.0803C287.59 79.0803 287.51 77.5685 285.343 73.2693C283.059 68.7362 280.716 62.4394 280.716 60.8345C280.716 58.6508 283.216 56.4172 285.656 56.4172C287.34 56.4172 287.712 56.2265 287.572 55.4298C287.313 53.9929 283.041 53.7137 281.066 55.003C279.67 55.9156 279.6 55.8997 279.316 54.6149C278.569 51.2463 277.627 43.5943 277.57 40.4368C277.5 36.6006 276.662 35.7766 275.151 38.0534Z" fill="#D5D0C3"/>
<path d="M229.929 56.2423C228.676 57.4953 230.682 60.4848 232.775 60.4848C233.626 60.4848 233.749 60.1352 233.436 58.6257C232.957 56.3013 231.118 55.0528 229.929 56.2423Z" fill="#D5D0C3"/>
<path d="M296.436 59.6992C295.755 60.5799 295.244 62.1121 295.244 63.2743C295.244 65.0426 295.898 65.9756 300.27 70.4496C303.053 73.2984 305.18 75.7091 305.037 75.8544C304.891 75.9996 301.811 76.9235 298.15 77.9223C291.235 79.8041 285.365 82.6324 285.365 84.0784C285.365 85.5515 286.877 85.6265 289.492 84.2849C290.829 83.5971 295.476 82.1398 299.777 81.0548C304.076 79.972 307.99 78.7735 308.435 78.4012C310.255 76.8849 309.277 74.9532 303.917 69.4917C299.87 65.365 298.66 63.7715 298.812 62.75C299.062 61.0657 300.474 60.5708 300.474 62.1689C300.474 62.809 300.735 63.4945 301.055 63.692C301.986 64.2686 303.947 62.868 304.324 61.3562C304.875 59.1476 303.67 58.1602 300.415 58.1602C298.091 58.1602 297.428 58.4167 296.436 59.6992Z" fill="#D5D0C3"/>
<path d="M207.438 65.9918C204.882 67.3946 200.276 77.9045 201.627 79.2551C202.771 80.3991 203.911 79.1393 205.461 75.0126C206.333 72.6881 207.627 70.1435 208.369 69.2878C209.631 67.835 209.79 67.7964 211.215 68.5909C212.437 69.2719 212.866 69.2946 213.453 68.7067C214.023 68.1369 213.83 67.6784 212.552 66.5661C210.677 64.9363 209.59 64.8137 207.438 65.9918Z" fill="#D5D0C3"/>
<path d="M84.4254 69.6076C82.3915 72.5131 80.8026 76.1405 80.4303 78.7305C80.1103 80.9391 80.2669 81.4953 81.5721 82.7982C83.5855 84.8139 88.139 84.932 91.1603 83.0479C93.2237 81.7609 95.3075 78.0926 95.3302 75.7092C95.3665 71.6732 91.7414 68.0391 87.6737 68.0391C85.9871 68.0391 85.2857 68.3773 84.4254 69.6076ZM90.8108 72.5358C92.5064 73.9954 92.1478 77.6863 90.1139 79.7202C88.6725 81.1616 87.9938 81.4317 86.1914 81.2887C84.2733 81.1344 83.9896 80.9119 83.8193 79.4296C83.5674 77.221 84.7387 74.5515 86.1619 74.0907C86.7816 73.891 87.5103 73.0942 87.8212 72.2816C88.3865 70.7993 88.8359 70.8379 90.8108 72.5358Z" fill="#D5D0C3"/>
<path d="M113.299 69.9322C108.36 73.6753 107.42 78.0745 111.149 79.9971C113.649 81.2864 121.203 81.4703 121.203 80.2423C121.203 79.2866 119.575 78.7032 115.508 78.1993C113.998 78.0109 112.777 77.6386 112.777 77.3663C112.777 77.0961 113.649 76.3312 114.695 75.682C120.447 72.1136 121.593 68.0391 116.845 68.0391C116.261 68.0391 114.695 68.8767 113.299 69.9322Z" fill="#D5D0C3"/>
<path d="M102.898 69.9596C101.613 70.627 101.445 71.0901 101.445 73.9956C101.445 75.8547 101.144 77.5821 100.749 77.9771C99.7316 78.994 99.8179 79.9043 101.039 81.0097C103.675 83.4 105.799 81.3457 104.959 77.2212C104.108 73.0377 104.228 72.4725 106.035 72.1388C108.244 71.7325 108.575 70.509 106.675 69.7826C104.757 69.0494 104.646 69.0539 102.898 69.9596Z" fill="#D5D0C3"/>
<path d="M245.037 70.4568C244.166 71.1469 243.219 72.3454 242.908 73.1535C242.259 74.8378 242.815 78.5265 243.757 78.7875C244.107 78.8828 245.85 79.3709 247.593 79.8612C251.602 80.9871 259.254 81.6113 260.319 80.9008C260.768 80.6012 260.991 79.9815 260.814 79.5162C260.589 78.926 259.07 78.5696 255.758 78.3244C253.143 78.1315 250.776 77.8205 250.469 77.6276C250.156 77.4301 250.665 76.5244 251.641 75.5347C253.479 73.6756 253.958 71.1491 252.708 69.8984C251.539 68.7294 246.781 69.0744 245.037 70.4568ZM249.918 72.6291C249.918 73.1853 246.897 75.5937 246.2 75.5937C245.392 75.5937 245.909 73.2874 246.838 72.7426C248.116 71.9958 249.918 71.93 249.918 72.6291Z" fill="#D5D0C3"/>
<path d="M265.839 70.3886C264.82 71.0423 263.522 72.5428 262.963 73.705C262.071 75.564 262.046 76.0044 262.761 77.2779C264.205 79.852 270.141 80.9665 275.661 79.7044C278.508 79.0529 280.387 77.4844 279.543 76.4652C279.043 75.8659 278.508 75.8773 276.939 76.5265C274.905 77.3664 269.383 77.6388 267.701 76.9805C266.963 76.6922 267.047 76.2904 268.25 74.3723C269.818 71.8754 269.977 70.897 268.979 69.8983C268.073 68.9926 267.991 69.0062 265.839 70.3886Z" fill="#D5D0C3"/>
<path d="M216.445 71.7572C214.922 73.2826 214.47 74.1997 214.47 75.7682C214.47 78.651 216.098 79.6612 220.747 79.6612C224.059 79.6612 224.649 79.4773 226.152 77.9769C229.114 75.0123 227.836 70.9446 223.943 70.9446C223.246 70.9446 222.504 70.6813 222.313 70.3635C221.519 69.0469 218.422 69.7824 216.445 71.7572ZM219.959 73.7911C220.136 74.0794 221.328 74.1702 222.606 73.9954C224.408 73.748 224.93 73.8592 224.93 74.4902C224.93 76.0225 223.593 76.7556 220.804 76.7556C217.725 76.7556 217.033 76.1904 217.959 74.4312C218.633 73.1532 219.41 72.9036 219.959 73.7911Z" fill="#D5D0C3"/>
<path d="M233.756 72.8628C233.295 73.4121 233.291 74.227 233.733 75.8545C234.08 77.1212 234.255 81.6088 234.142 86.1987C233.937 94.2751 233.931 94.3092 232.31 95.7006C231.17 96.6767 229.985 97.0944 228.358 97.0944C226.267 97.0944 225.974 96.9173 225.425 95.3216C225.023 94.1594 224.494 93.61 223.884 93.7281C222.417 94.0095 222.347 96.6291 223.759 98.4314C224.833 99.8002 225.396 99.9999 228.185 99.9999C232.078 99.9999 234.441 98.8672 235.824 96.3385C236.639 94.8517 236.877 92.7361 237.018 85.7628C237.113 80.9392 236.972 76.0089 236.702 74.7218C236.189 72.2817 234.914 71.4781 233.756 72.8628Z" fill="#D5D0C3"/>
</svg>
