<svg width="200" height="100" viewBox="0 0 200 100" fill="none" xmlns="http://www.w3.org/2000/svg">
<path d="M111.842 4.50023C106.542 7.09463 93.9024 12.5239 83.6165 16.6211C59.1564 26.3723 15.6147 46.944 8.69524 52.0252C2.86416 56.306 -0.527544 61.2606 0.864574 63.4659C2.33896 65.7945 3.44316 65.3294 5.07573 61.6846C6.25587 59.0427 7.88528 57.2931 11.3687 54.9297C17.7314 50.6046 63.6112 29.5299 85.3156 20.9557C110.424 11.04 123.83 4.17751 123.314 1.50401C123.172 0.773151 122.707 0.118222 122.251 0.00432172C121.808 -0.106415 117.106 1.92481 111.842 4.50023Z" fill="#D5D0C3"/>
<path d="M62.3993 36.9003C61.2508 38.2766 60.0105 41.1937 59.5391 43.6236C58.0932 51.0746 56.815 68.2198 57.2168 74.7248C57.6566 81.853 62.3834 98.3876 64.1774 99.0837C66.8382 100.115 66.8888 97.8086 64.4115 88.4941C62.2442 80.366 61.9088 77.721 61.9088 68.8937C61.9088 54.153 63.2092 43.7944 65.598 39.4915C66.68 37.5489 67.3729 35.5967 67.1261 35.1981C66.2624 33.8123 64.4305 34.4704 62.3993 36.9003Z" fill="#D5D0C3"/>
<path d="M150.982 50.4227C149.587 54.6212 149.448 81.5271 150.796 85.9818C152.267 90.8416 154.555 93.3949 156.431 92.278C157.611 91.5725 157.968 90.0316 158.294 84.1974C158.661 77.6386 158.845 76.9964 160.319 77.0723C161.211 77.1166 162.559 77.4172 163.315 77.743C165.666 78.7492 166.176 75.8099 163.964 74.016C161.291 71.8455 157.934 72.0733 155.991 74.5602C155.102 75.6928 154.121 76.5851 153.757 76.5851C153.112 76.5851 153.947 55.5261 154.798 50.4227C155.244 47.7492 155.118 47.4265 153.637 47.4265C152.425 47.4265 151.707 48.2365 150.982 50.4227Z" fill="#D5D0C3"/>
<path d="M85.9583 52.1259C84.2339 54.0464 81.5478 66.1389 80.8517 75.1275C80.2474 82.9044 81.7281 89.6625 84.8256 93.2725C87.208 96.0504 92.1216 96.294 95.605 93.8135L97.9527 92.1366L100.3 94.1584C102.812 96.3162 105.9 96.4459 106.29 94.4052C106.429 93.6806 105.647 92.627 104.515 92.0164C103.344 91.3836 102.382 90.0326 102.233 88.8177C101.866 85.7582 99.5726 85.7202 95.4405 88.7006C90.9857 91.9183 88.7678 91.719 86.7967 87.9255C84.0631 82.6608 86.1291 56.7516 89.4481 54.695C90.7358 53.8977 90.0967 51.123 88.5558 50.8224C87.9167 50.699 86.686 51.316 85.9583 52.1259Z" fill="#D5D0C3"/>
<path d="M187.048 77.8256C181.296 80.7522 179.211 87.0452 182.577 91.326C186.139 95.863 198.76 98.7137 199.425 95.1321C199.621 94.0881 198.548 93.4236 194.986 92.3795C192.395 91.6202 189.433 90.4591 188.383 89.7883L186.481 88.5734L190.205 84.9412C194.176 81.0749 194.828 78.7431 192.312 77.4143C190.297 76.3512 189.882 76.386 187.048 77.8256Z" fill="#D5D0C3"/>
<path d="M171.355 79.1006C168.565 82.0968 167.653 93.1673 170.121 94.107C171.849 94.7682 172.592 93.4362 173.247 88.4942C174.019 82.6631 174.737 81.6159 177.651 82.0588C180.568 82.5018 181.072 80.9261 178.705 78.7683C176.68 76.9175 173.241 77.0757 171.355 79.1006Z" fill="#D5D0C3"/>
<path d="M117.31 81.4602C114.966 82.4189 112.317 85.9846 111.182 89.7085C110.093 93.2774 110.346 93.6412 115.206 95.5143C120.066 97.3873 123.467 97.2987 123.467 95.2991C123.467 94.1032 122.575 93.4324 120.066 92.7459L116.665 91.8157L119.094 90.0439C124.521 86.0858 125.792 83.0991 122.739 81.5045C120.835 80.5079 119.661 80.4984 117.31 81.4602Z" fill="#D5D0C3"/>
<path d="M135.211 85.0314C130.756 86.9741 129.194 90.4132 131.649 92.8684C132.905 94.1245 134.037 94.463 135.98 94.1625C138.331 93.8018 138.736 94.0359 139.751 96.3487C140.995 99.1741 144.039 100.576 147.199 99.7784C150.525 98.9368 150.113 96.3329 146.551 95.6653C144.039 95.1971 143.716 94.8332 143.716 92.5014C143.716 91.046 144.115 89.4736 144.608 88.98C146.029 87.5562 144.121 84.9998 141.204 84.4208C138.046 83.7943 138.046 83.7943 135.211 85.0314ZM140.087 88.7364C139.821 89.1667 138.938 89.5463 138.207 89.5463C136.993 89.5463 136.974 89.4546 138.046 88.7585C139.666 87.7049 140.735 87.6954 140.087 88.7364Z" fill="#D5D0C3"/>
</svg>
